<svg width="60" height="32" viewBox="0 0 60 32" fill="none" xmlns="http://www.w3.org/2000/svg">
<path d="M13.7623 15.2986H10.2844L3.97934 5.68629C3.6095 5.12442 3.35345 4.70124 3.21121 4.41674H3.16853C3.22543 4.95728 3.25388 5.78231 3.25388 6.89183V15.2986H0V0H3.71262L9.78298 9.31357C10.0604 9.73319 10.3164 10.1493 10.5511 10.5618H10.5938C10.5369 10.2062 10.5084 9.5056 10.5084 8.46009V0H13.7623V15.2986Z" fill="white"/>
<path d="M13.7623 31.6853H10.2844L3.97934 22.073C3.6095 21.5111 3.35345 21.088 3.21121 20.8035H3.16853C3.22543 21.344 3.25388 22.169 3.25388 23.2785V31.6853H0V16.3867H3.71262L9.78298 25.7003C10.0604 26.1199 10.3164 26.536 10.5511 26.9485H10.5938C10.5369 26.5929 10.5084 25.8923 10.5084 24.8468V16.3867H13.7623V31.6853Z" fill="white"/>
<path d="M30.1174 31.6853H26.3621L25.2739 28.2821H19.833L18.7554 31.6853H15.0215L20.5904 16.3867H24.6764L30.1174 31.6853ZM24.4844 25.6363L22.8415 20.4941C22.7206 20.11 22.6352 19.6513 22.5854 19.1178H22.5001C22.4645 19.5659 22.3756 20.0104 22.2334 20.4514L20.5691 25.6363H24.4844Z" fill="white"/>
<path d="M48.8405 31.6853H45.4372V22.5318C45.4372 21.5431 45.4799 20.4514 45.5652 19.2565H45.4799C45.3021 20.1954 45.1421 20.871 44.9998 21.2835L41.4152 31.6853H38.5987L34.9501 21.3902C34.8506 21.1128 34.6905 20.4016 34.4701 19.2565H34.374C34.4665 20.7643 34.5127 22.0872 34.5127 23.2252V31.6853H31.4082V16.3867H36.4544L39.5802 25.4549C39.8292 26.1804 40.0105 26.9094 40.1243 27.6419H40.1883C40.3804 26.7956 40.5831 26.0595 40.7964 25.4336L43.9223 16.3867H48.8405V31.6853Z" fill="white"/>
<path d="M59.7003 31.6853H50.5254V16.3867H59.3482V19.1925H53.9713V22.5958H58.9748V25.3909H53.9713V28.8902H59.7003V31.6853Z" fill="white"/>
<path d="M22.7284 15.456C20.5884 15.456 18.8444 14.7612 17.4965 13.3716C16.1486 11.975 15.4746 10.1581 15.4746 7.9208C15.4746 5.55846 16.159 3.64774 17.5278 2.18864C18.8965 0.729548 20.71 0 22.9681 0C25.1012 0 26.8243 0.698281 28.1375 2.09484C29.4576 3.49141 30.1177 5.33265 30.1177 7.61856C30.1177 9.96701 29.4333 11.8604 28.0645 13.2986C26.7027 14.7369 24.924 15.456 22.7284 15.456ZM22.8743 2.89735C21.6931 2.89735 20.7551 3.34202 20.0603 4.23138C19.3655 5.11378 19.0181 6.28453 19.0181 7.74363C19.0181 9.22357 19.3655 10.3943 20.0603 11.2559C20.7551 12.1174 21.6653 12.5482 22.7909 12.5482C23.9513 12.5482 24.8719 12.1313 25.5528 11.2976C26.2337 10.4568 26.5742 9.29305 26.5742 7.80616C26.5742 6.25674 26.2441 5.05125 25.5841 4.18969C24.924 3.32813 24.0207 2.89735 22.8743 2.89735Z" fill="white"/>
<path d="M52.6112 15.456C50.4712 15.456 48.7272 14.7612 47.3793 13.3716C46.0314 11.975 45.3574 10.1581 45.3574 7.9208C45.3574 5.55846 46.0418 3.64774 47.4106 2.18864C48.7793 0.729548 50.5928 0 52.8509 0C54.984 0 56.7071 0.698281 58.0203 2.09484C59.3404 3.49141 60.0005 5.33265 60.0005 7.61856C60.0005 9.96701 59.3161 11.8604 57.9473 13.2986C56.5855 14.7369 54.8068 15.456 52.6112 15.456ZM52.7571 2.89735C51.5759 2.89735 50.638 3.34202 49.9431 4.23138C49.2483 5.11378 48.9009 6.28453 48.9009 7.74363C48.9009 9.22357 49.2483 10.3943 49.9431 11.2559C50.638 12.1174 51.5482 12.5482 52.6737 12.5482C53.8341 12.5482 54.7547 12.1313 55.4356 11.2976C56.1165 10.4568 56.457 9.29305 56.457 7.80616C56.457 6.25674 56.1269 5.05125 55.4669 4.18969C54.8068 3.32813 53.9036 2.89735 52.7571 2.89735Z" fill="white"/>
<rect x="33.6182" y="9.60498" width="8.53779" height="4.2689" fill="white"/>
</svg>
