<svg width="30" height="30" viewBox="0 0 30 30" fill="none" xmlns="http://www.w3.org/2000/svg">
<path d="M4.8301 20.5687C3.7576 16.2788 3.22135 14.135 4.3476 12.6925C5.47385 11.25 7.6851 11.25 12.1064 11.25H17.8939C22.3164 11.25 24.5264 11.25 25.6526 12.6925C26.7789 14.135 26.2426 16.28 25.1701 20.5687C24.4876 23.2975 24.1476 24.6612 23.1301 25.4562C22.1126 26.25 20.7064 26.25 17.8939 26.25H12.1064C9.29385 26.25 7.8876 26.25 6.8701 25.4562C5.8526 24.6612 5.51135 23.2975 4.8301 20.5687Z" stroke="#464646" stroke-width="1.5"/>
<path d="M24.375 11.875L23.4875 8.61875C23.145 7.3625 22.9737 6.735 22.6225 6.26125C22.2723 5.79058 21.7966 5.428 21.25 5.215C20.7 5 20.05 5 18.75 5M5.625 11.875L6.5125 8.61875C6.855 7.3625 7.02625 6.735 7.3775 6.26125C7.72772 5.79058 8.20336 5.428 8.75 5.215C9.3 5 9.95 5 11.25 5" stroke="#464646" stroke-width="1.5"/>
<path d="M11.25 5C11.25 4.66848 11.3817 4.35054 11.6161 4.11612C11.8505 3.8817 12.1685 3.75 12.5 3.75H17.5C17.8315 3.75 18.1495 3.8817 18.3839 4.11612C18.6183 4.35054 18.75 4.66848 18.75 5C18.75 5.33152 18.6183 5.64946 18.3839 5.88388C18.1495 6.1183 17.8315 6.25 17.5 6.25H12.5C12.1685 6.25 11.8505 6.1183 11.6161 5.88388C11.3817 5.64946 11.25 5.33152 11.25 5Z" stroke="#464646" stroke-width="1.5"/>
</svg>
