<svg width="150" height="150" viewBox="0 0 150 150" fill="none" xmlns="http://www.w3.org/2000/svg">
<path d="M25 131.25H31.25V50H25C21.6848 50 18.5054 51.317 16.1612 53.6612C13.817 56.0054 12.5 59.1848 12.5 62.5V118.75C12.5 122.065 13.817 125.245 16.1612 127.589C18.5054 129.933 21.6848 131.25 25 131.25ZM125 50H81.25L88.2625 28.95C88.8882 27.0713 89.0587 25.0709 88.7598 23.1135C88.461 21.156 87.7014 19.2976 86.5436 17.6912C85.3858 16.0848 83.863 14.7765 82.1005 13.874C80.338 12.9714 78.3864 12.5005 76.4063 12.5H75L43.75 46.4875V131.25H112.5L136.95 77.525L137.5 75V62.5C137.5 59.1848 136.183 56.0054 133.839 53.6612C131.495 51.317 128.315 50 125 50Z" fill="#303030"/>
</svg>
