<svg width="47" height="47" viewBox="0 0 47 47" fill="none" xmlns="http://www.w3.org/2000/svg">
<path d="M23.5003 3.91667C12.6903 3.91667 3.91699 12.69 3.91699 23.5C3.91699 34.31 12.6903 43.0833 23.5003 43.0833C34.3103 43.0833 43.0837 34.31 43.0837 23.5C43.0837 12.69 34.3103 3.91667 23.5003 3.91667ZM32.587 17.2333C32.2932 20.3275 31.0203 27.8475 30.3741 31.3138C30.0999 32.7825 29.5516 33.2721 29.0424 33.3308C27.9066 33.4288 27.0449 32.5867 25.9482 31.8621C24.2249 30.7263 23.2457 30.0213 21.5812 28.9246C19.6424 27.6517 20.8957 26.9467 22.012 25.8108C22.3057 25.5171 27.3191 20.9542 27.417 20.5429C27.4306 20.4806 27.4288 20.416 27.4117 20.3545C27.3947 20.2931 27.3629 20.2368 27.3191 20.1904C27.2016 20.0925 27.0449 20.1317 26.9078 20.1513C26.7316 20.1904 23.9899 22.0117 18.6437 25.615C17.8603 26.1438 17.1553 26.4179 16.5287 26.3983C15.8237 26.3788 14.492 26.0067 13.4932 25.6738C12.2595 25.2821 11.2999 25.0667 11.3782 24.3813C11.4174 24.0288 11.907 23.6763 12.8274 23.3042C18.5457 20.8171 22.3449 19.1721 24.2445 18.3888C29.6887 16.1171 30.8049 15.7254 31.5491 15.7254C31.7057 15.7254 32.0778 15.7646 32.3128 15.9604C32.5087 16.1171 32.5674 16.3325 32.587 16.4892C32.5674 16.6067 32.6066 16.9592 32.587 17.2333Z" fill="#464646"/>
</svg>
