<svg width="150" height="150" viewBox="0 0 150 150" fill="none" xmlns="http://www.w3.org/2000/svg">
<g clip-path="url(#clip0_68_39)">
<path d="M145.291 134.208L125 114.042V36.4583L115.416 18.8333C114.709 17.4896 113.649 16.3645 112.349 15.5796C111.049 14.7947 109.56 14.3799 108.041 14.3799C106.523 14.3799 105.034 14.7947 103.734 15.5796C102.434 16.3645 101.373 17.4896 100.666 18.8333L91.6664 36.5V80.875L15.4581 5.04165C14.8753 4.45403 14.1307 4.05327 13.3192 3.89048C12.5078 3.72769 11.6663 3.81024 10.9019 4.1276C10.1376 4.44496 9.48503 4.98276 9.02753 5.67243C8.57002 6.36209 8.32827 7.17238 8.33308 7.99998V41.6666H17.3747V48.3333H8.33308V75H17.3747V81.6667H8.33308V109.375H17.3747V116.042H8.33308V137.167C8.33308 138.272 8.77206 139.332 9.55347 140.113C10.3349 140.894 11.3947 141.333 12.4997 141.333H142.333C143.161 141.338 143.971 141.096 144.661 140.639C145.35 140.181 145.888 139.529 146.205 138.764C146.523 138 146.605 137.159 146.443 136.347C146.28 135.536 145.879 134.791 145.291 134.208ZM41.6664 108.333V70.5833L79.4581 108.333H41.6664ZM116.666 117.125H99.9997V107H116.666V117.125ZM116.666 100.458H99.9997V38.5416L108.083 22.8333L116.666 38.5833V100.458Z" fill="#303030"/>
</g>
<defs>
<clipPath id="clip0_68_39">
<rect width="150" height="150" fill="white"/>
</clipPath>
</defs>
</svg>
