<svg width="47" height="47" viewBox="0 0 47 47" fill="none" xmlns="http://www.w3.org/2000/svg">
<path d="M8.3425 8.3425C5.875 10.8335 5.875 14.8168 5.875 22.795V24.205C5.875 32.1715 5.875 36.1548 8.3425 38.6575C10.8335 41.125 14.8168 41.125 22.795 41.125H24.205C32.1715 41.125 36.1548 41.125 38.6575 38.6575C41.125 36.1665 41.125 32.1832 41.125 24.205V22.795C41.125 14.8285 41.125 10.8453 38.6575 8.3425C36.1665 5.875 32.1832 5.875 24.205 5.875H22.795C14.8285 5.875 10.8453 5.875 8.3425 8.3425ZM11.8205 16.6027H15.8625C15.9918 23.3237 18.9528 26.1672 21.3028 26.7547V16.6027H25.098V22.3955C27.4128 22.1488 29.8568 19.505 30.6793 16.591H34.4627C34.154 18.0993 33.5377 19.5279 32.6522 20.7873C31.7667 22.0468 30.6311 23.1103 29.3163 23.9113C30.7839 24.6415 32.08 25.6746 33.119 26.9425C34.1581 28.2104 34.9164 29.6842 35.344 31.2667H31.1728C30.2798 28.482 28.0473 26.32 25.098 26.0263V31.2667H24.628C16.591 31.2667 12.0085 25.7677 11.8205 16.6027Z" fill="#464646"/>
</svg>
