<svg width="47" height="47" viewBox="0 0 47 47" fill="none" xmlns="http://www.w3.org/2000/svg">
<path d="M19.5837 29.375L29.7474 23.5L19.5837 17.625V29.375ZM42.222 14.0413C42.4766 14.9617 42.6528 16.1954 42.7703 17.7621C42.9074 19.3288 42.9662 20.68 42.9662 21.855L43.0837 23.5C43.0837 27.7888 42.7703 30.9417 42.222 32.9588C41.7324 34.7213 40.5966 35.8571 38.8341 36.3467C37.9137 36.6013 36.2295 36.7775 33.6445 36.895C31.0987 37.0321 28.7682 37.0908 26.6141 37.0908L23.5003 37.2083C15.2949 37.2083 10.1837 36.895 8.16658 36.3467C6.40408 35.8571 5.26824 34.7213 4.77866 32.9588C4.52408 32.0383 4.34783 30.8046 4.23033 29.2379C4.09324 27.6713 4.03449 26.32 4.03449 25.145L3.91699 23.5C3.91699 19.2113 4.23033 16.0583 4.77866 14.0413C5.26824 12.2788 6.40408 11.1429 8.16658 10.6533C9.08699 10.3988 10.7712 10.2225 13.3562 10.105C15.902 9.96792 18.2324 9.90917 20.3866 9.90917L23.5003 9.79167C31.7057 9.79167 36.817 10.105 38.8341 10.6533C40.5966 11.1429 41.7324 12.2788 42.222 14.0413Z" fill="#464646"/>
</svg>
